<?xml version="1.0" standalone="no"?>
<!DOCTYPE svg PUBLIC "-//W3C//DTD SVG 20010904//EN"
 "http://www.w3.org/TR/2001/REC-SVG-20010904/DTD/svg10.dtd">
<svg version="1.0" xmlns="http://www.w3.org/2000/svg"
 width="1280.000000pt" height="1245.000000pt" viewBox="0 0 1280.000000 1245.000000"
 preserveAspectRatio="xMidYMid meet">
<g transform="translate(0.000000,1245.000000) scale(0.100000,-0.100000)"
fill="#000000" stroke="none">
<path d="M7653 12430 c-13 -20 -8 -50 9 -50 6 0 25 -7 44 -16 25 -12 57 -51
128 -158 110 -164 180 -296 304 -566 111 -243 195 -410 283 -566 38 -67 69
-127 69 -133 0 -19 -23 -13 -149 40 -166 68 -249 87 -468 105 -392 32 -446 31
-688 -17 -219 -44 -510 -147 -574 -203 -22 -20 -72 -45 -127 -65 -113 -40
-157 -66 -152 -89 5 -26 49 -20 162 22 82 30 104 35 130 27 17 -5 110 -12 206
-16 199 -7 301 -17 480 -46 129 -21 170 -32 170 -47 0 -5 -30 -22 -67 -38 -38
-15 -103 -52 -145 -80 -118 -79 -350 -278 -373 -320 -11 -20 -56 -65 -102
-101 -122 -95 -153 -139 -121 -171 19 -19 36 -14 53 17 8 16 55 61 104 100 82
64 95 71 136 71 27 0 121 23 228 55 217 66 349 94 453 98 89 2 102 -9 46 -41
-21 -11 -78 -56 -127 -98 -50 -42 -151 -122 -225 -177 -235 -174 -491 -447
-708 -751 -118 -165 -141 -205 -153 -269 -8 -48 -22 -75 -75 -145 -90 -122
-119 -222 -64 -222 20 0 23 5 50 77 21 56 139 207 176 225 19 9 83 61 142 115
314 290 588 472 947 627 97 42 139 67 165 95 30 32 39 37 65 31 17 -3 48 -2
70 2 114 23 109 23 100 2 -51 -121 -81 -221 -115 -396 -44 -224 -48 -281 -23
-353 14 -43 15 -60 4 -133 -6 -45 -9 -87 -6 -92 10 -16 44 -11 54 8 12 24 32
157 25 175 -3 8 6 27 19 43 13 16 41 63 62 104 21 41 61 111 89 155 105 162
302 385 339 385 16 0 27 -29 27 -76 0 -18 11 -75 25 -128 14 -53 25 -116 25
-140 0 -50 30 -206 61 -311 59 -205 172 -466 237 -548 17 -21 33 -56 37 -80
10 -56 22 -77 45 -77 29 0 31 13 19 89 -10 60 -9 76 5 111 9 23 16 69 16 109
0 101 17 256 46 421 20 112 24 162 19 218 -5 62 -3 78 13 105 26 42 35 106 37
255 1 78 5 126 13 134 6 6 14 10 16 7 6 -6 99 -311 121 -399 29 -112 55 -261
66 -378 5 -62 17 -128 25 -147 13 -33 12 -38 -22 -115 -37 -85 -38 -120 -3
-120 15 0 33 28 79 123 33 67 69 138 80 158 28 49 67 196 80 295 6 45 19 107
29 137 33 94 44 200 36 343 -4 88 -3 134 4 138 19 12 64 -21 211 -153 95 -86
158 -135 183 -142 40 -13 43 -19 26 -50 -9 -17 3 -33 97 -124 59 -58 111 -105
115 -105 17 0 246 -262 332 -380 51 -68 115 -148 144 -176 50 -51 57 -64 83
-170 12 -47 30 -67 54 -58 21 8 20 33 -5 124 -23 87 -32 297 -13 304 18 7 75
-37 124 -95 24 -30 117 -135 205 -234 310 -348 457 -525 654 -788 308 -414
771 -1133 771 -1199 0 -9 -15 -27 -34 -42 -19 -14 -38 -35 -41 -46 -4 -11 -24
-29 -46 -41 -22 -11 -57 -36 -79 -55 -29 -26 -46 -35 -67 -32 -26 3 -28 6 -33
60 -6 65 -27 98 -65 98 -15 0 -44 17 -73 44 -27 24 -62 46 -77 50 -39 10 -96
-21 -120 -66 -19 -37 -21 -38 -76 -38 -51 0 -60 4 -95 35 -21 20 -58 41 -82
48 -38 11 -47 20 -70 67 -35 70 -75 95 -153 93 -70 -2 -115 -20 -166 -66 -35
-32 -42 -35 -86 -30 -63 7 -61 26 11 86 120 101 258 146 410 132 48 -4 114 -8
147 -9 59 -1 62 -3 148 -71 110 -87 130 -100 151 -92 34 13 16 45 -58 100 -40
31 -102 88 -137 129 -142 163 -229 237 -519 440 -455 320 -850 510 -1420 682
-241 72 -367 102 -520 121 -69 9 -174 28 -235 41 -265 61 -883 58 -1270 -6
-296 -50 -597 -131 -780 -212 -49 -22 -142 -59 -206 -83 -265 -99 -620 -303
-939 -538 -394 -291 -785 -669 -1164 -1126 -123 -148 -156 -198 -156 -239 0
-11 -53 -74 -121 -143 -66 -68 -127 -137 -136 -153 l-15 -29 -2207 5 c-2353 6
-2275 7 -2229 -39 20 -19 -82 -18 3748 -28 1457 -4 2409 -10 2415 -16 17 -16
-10 -30 -100 -50 -188 -41 -470 -141 -600 -214 -119 -66 -193 -153 -179 -209
9 -36 51 -75 111 -103 58 -27 189 -47 698 -108 551 -67 811 -130 894 -218 31
-34 23 -68 -22 -95 -102 -60 -257 -99 -807 -202 -756 -142 -1127 -245 -1437
-398 -187 -93 -256 -159 -256 -248 0 -78 35 -112 288 -277 89 -58 120 -99 109
-144 -12 -47 -120 -146 -210 -191 -164 -82 -405 -152 -774 -222 -793 -151
-1095 -229 -1470 -377 -543 -215 -953 -515 -1030 -756 -7 -22 -10 -68 -8 -103
3 -50 10 -73 34 -106 35 -51 130 -118 211 -148 252 -95 543 -114 1728 -111
1070 2 1576 -15 2075 -70 717 -78 1268 -210 1732 -414 297 -130 528 -317 528
-426 0 -31 -42 -100 -77 -125 -44 -32 -142 -80 -214 -104 -35 -12 -78 -30 -95
-41 -24 -15 -50 -19 -113 -19 -87 0 -121 -10 -121 -37 0 -31 32 -42 125 -43
84 0 93 2 125 28 19 16 71 41 115 56 261 91 364 222 295 375 -44 96 -229 241
-450 351 -528 264 -1342 442 -2280 500 -96 6 -200 13 -230 16 -30 3 -588 9
-1240 14 -1114 8 -1346 14 -1579 41 -239 28 -434 109 -489 204 -18 32 -22 50
-18 91 23 263 556 628 1256 861 265 88 533 149 1275 293 307 60 587 143 730
218 81 43 188 139 217 196 26 52 20 113 -17 161 -14 20 -91 78 -169 129 -78
51 -154 106 -169 122 -84 90 35 194 373 327 318 124 499 169 1488 362 323 63
434 91 528 134 93 44 124 77 124 133 0 57 -23 92 -87 132 -133 84 -402 140
-1008 211 -468 54 -533 67 -592 111 -18 14 -33 32 -33 41 0 29 84 98 176 145
143 74 349 146 549 193 108 26 149 43 172 74 13 19 65 24 393 41 160 8 469 9
1075 3 l850 -8 71 -235 c252 -833 326 -1070 343 -1106 l19 -41 -35 -59 c-19
-33 -60 -90 -90 -128 -31 -38 -62 -88 -69 -113 -22 -73 -68 -97 -274 -143
-172 -39 -387 -50 -573 -31 l-112 12 -28 -33 c-38 -45 -59 -116 -42 -143 27
-43 68 -56 212 -66 141 -10 246 -21 366 -40 98 -16 103 -4 -99 -271 -278 -368
-635 -851 -649 -879 -22 -41 -13 -73 29 -98 63 -39 94 -23 182 93 29 39 71 91
92 115 l38 44 76 -27 c42 -14 83 -26 91 -26 47 0 622 -185 832 -267 222 -88
325 -141 325 -167 0 -8 -23 -52 -50 -97 -56 -92 -63 -136 -30 -167 23 -21 86
-43 103 -36 7 2 34 39 62 82 27 42 206 316 398 607 289 440 352 530 370 529
19 -1 648 -166 1187 -312 80 -22 177 -45 215 -51 39 -7 92 -20 118 -29 55 -19
54 -19 82 62 21 62 15 99 -20 122 -14 9 -96 34 -182 56 -87 22 -161 42 -165
46 -15 15 -80 531 -112 897 -8 94 -20 285 -26 425 -12 284 -15 315 -37 348
-14 23 -11 30 58 145 39 67 147 235 239 372 176 264 230 352 230 377 0 24 -41
58 -92 78 -47 18 -78 12 -78 -14 0 -7 -9 -21 -21 -32 -16 -14 -44 -20 -127
-26 -233 -16 -476 -20 -672 -9 -221 12 -340 28 -490 66 -93 23 -210 45 -244
45 -9 0 -28 -12 -43 -27 -14 -16 -184 -241 -379 -500 -195 -260 -358 -473
-363 -473 -19 0 -42 46 -71 140 -16 52 -77 253 -135 445 -59 193 -117 385
-131 428 -27 89 -29 107 -11 108 6 0 626 -1 1377 -2 1666 -2 2342 -9 2347 -25
2 -7 -21 -26 -51 -43 -59 -33 -109 -79 -191 -176 -58 -68 -66 -84 -53 -107 14
-28 26 -22 82 37 46 49 56 55 91 55 22 0 65 7 95 15 102 27 105 14 19 -70 -61
-61 -90 -106 -103 -160 -4 -16 -19 -54 -33 -82 -24 -50 -24 -54 -9 -78 9 -13
16 -31 16 -39 0 -23 37 -28 106 -17 34 5 88 7 121 4 53 -5 63 -3 82 16 21 21
29 71 11 71 -15 0 -12 25 7 65 16 33 16 37 1 52 -20 19 -46 11 -56 -16 -4 -11
-36 -43 -70 -71 -51 -41 -73 -52 -113 -57 -54 -6 -59 -1 -35 46 14 26 124 100
223 150 46 23 63 44 56 72 -8 29 -34 32 -62 5 -23 -21 -121 -76 -136 -76 -23
0 11 43 102 130 l107 102 -23 19 c-29 23 -109 25 -196 5 -33 -8 -62 -13 -64
-11 -12 12 16 38 81 74 41 22 82 49 92 60 10 11 35 22 56 26 87 15 67 64 -25
65 -67 0 -95 9 -95 29 1 16 84 72 127 85 34 11 48 33 32 52 -13 15 -27 15 -86
-2 -15 -4 -23 -2 -23 6 0 12 44 68 95 120 27 27 31 50 15 81 -14 25 -44 24
-62 -3 -10 -15 -33 -25 -79 -35 -35 -7 -110 -35 -167 -63 -152 -73 -176 -68
-94 22 26 29 55 72 66 95 16 37 26 45 70 59 34 12 85 18 153 18 59 1 107 6
113 12 15 15 3 41 -23 48 -47 12 -184 4 -252 -15 -116 -33 -115 -33 -115 -17
0 24 93 106 151 133 32 14 97 31 145 38 78 11 91 16 101 38 15 29 18 265 4
302 -21 54 -71 33 -71 -30 0 -55 -20 -37 -72 66 l-48 93 31 38 c28 34 33 51
43 142 6 57 15 109 19 116 17 26 26 9 29 -54 2 -49 7 -70 20 -77 32 -20 48 8
48 84 0 67 -1 71 -40 113 -22 24 -51 68 -64 98 -79 177 -527 779 -867 1163
-242 274 -856 874 -994 972 -17 12 -47 24 -67 28 -36 7 -36 7 -203 338 -93
183 -191 366 -219 407 -28 41 -99 122 -157 181 -206 207 -459 339 -679 355
-97 7 -120 12 -120 26 0 6 83 95 184 197 178 180 279 289 296 322 6 10 3 26
-6 44 -18 34 -12 42 21 27 23 -10 28 -8 57 26 18 20 127 132 242 248 213 213
361 340 529 458 51 35 102 77 114 93 18 26 32 32 97 43 78 13 101 26 90 53 -9
24 -26 26 -96 12 -39 -9 -118 -14 -194 -13 -101 1 -152 -3 -234 -21 -357 -78
-505 -135 -845 -329 -239 -136 -317 -193 -462 -340 -150 -151 -139 -149 -163
-22 -27 149 -105 276 -264 435 -118 117 -238 207 -388 292 -152 86 -468 213
-529 213 -25 0 -59 11 -92 30 -63 35 -68 36 -84 10z m282 -136 c54 -22 66 -31
73 -56 5 -19 59 -82 153 -176 81 -81 183 -196 227 -256 165 -223 305 -489 391
-741 23 -66 50 -127 61 -136 18 -15 20 -32 23 -190 3 -140 7 -183 22 -219 27
-66 38 -72 90 -47 43 21 44 23 55 87 66 390 287 813 535 1026 57 49 95 106 95
142 0 25 5 29 136 99 230 123 358 172 604 229 181 42 334 56 329 31 -2 -9 -58
-55 -124 -104 -177 -131 -317 -255 -532 -472 l-192 -194 -44 5 c-26 3 -87 27
-147 57 -109 56 -135 60 -135 21 0 -20 15 -32 95 -74 84 -45 97 -56 116 -96
l22 -45 -22 -30 c-11 -16 -123 -136 -249 -265 -125 -129 -234 -241 -240 -248
-31 -34 -107 -87 -169 -118 -69 -35 -81 -51 -53 -74 13 -11 26 -9 73 14 48 23
62 26 85 17 16 -6 47 -11 70 -11 112 -1 327 -70 479 -154 158 -87 254 -162
420 -328 126 -126 164 -158 192 -164 19 -3 39 -11 44 -18 6 -6 62 -116 126
-244 108 -214 119 -242 141 -348 27 -130 59 -234 85 -279 22 -36 33 -226 14
-232 -7 -2 -37 32 -68 77 -133 190 -308 387 -463 522 -69 59 -103 96 -103 110
0 11 -5 38 -11 59 -10 31 -8 56 11 147 24 117 23 142 -9 142 -26 0 -27 -2 -51
-110 -11 -52 -24 -98 -29 -103 -13 -13 -32 1 -196 147 -111 99 -152 129 -197
146 -55 20 -59 23 -89 88 -48 102 -96 168 -188 264 -74 77 -98 95 -208 153
-100 53 -127 64 -139 54 -30 -25 -15 -46 68 -90 60 -32 84 -51 88 -69 4 -14
24 -52 45 -84 125 -196 203 -437 227 -706 9 -101 17 -141 30 -160 17 -23 17
-34 8 -105 -11 -80 -55 -254 -72 -287 -18 -36 -38 -21 -38 30 0 115 -54 375
-131 637 -65 218 -66 220 -111 272 -21 24 -38 54 -39 66 0 12 -24 83 -53 157
-47 122 -54 135 -77 135 -38 0 -35 -28 21 -174 l52 -134 -7 -201 c-7 -216 -18
-304 -41 -313 -9 -3 -43 22 -89 66 -76 72 -116 89 -129 55 -6 -17 4 -28 128
-143 91 -83 96 -109 61 -301 -25 -140 -40 -265 -51 -433 -8 -133 -21 -128 -97
38 -106 235 -178 482 -193 667 -6 79 -5 89 15 114 18 23 21 40 21 128 1 195
41 378 136 613 36 89 64 170 62 180 -6 31 -36 27 -57 -8 -29 -47 -116 -271
-145 -372 -25 -87 -48 -208 -61 -321 -5 -41 -10 -55 -17 -48 -18 18 -3 304 21
397 26 105 90 259 147 356 53 91 54 112 4 119 -30 4 -35 9 -38 35 -2 16 -9 33
-15 37 -23 15 -174 8 -289 -14 l-118 -21 -47 25 c-66 35 -137 57 -267 82
l-111 22 -16 49 c-13 42 -13 55 -1 102 16 64 11 86 -20 81 -18 -2 -27 -15 -39
-53 -26 -83 -48 -115 -84 -131 -51 -21 -106 -17 -169 12 -107 49 -507 104
-755 104 -66 0 -122 4 -126 10 -16 27 313 144 520 184 205 40 297 47 437 36
220 -18 228 -19 238 -44 6 -18 36 -31 152 -70 164 -54 326 -130 448 -210 91
-60 101 -64 120 -41 17 20 3 36 -85 94 -102 69 -167 104 -290 156 -60 25 -114
51 -119 56 -28 27 97 -8 229 -64 33 -14 92 -38 130 -53 105 -41 139 -68 222
-176 59 -77 81 -98 97 -96 11 2 22 11 24 21 4 22 -111 178 -173 234 -25 23
-45 50 -45 60 0 11 -30 71 -66 134 -96 167 -206 384 -323 639 -117 255 -195
402 -281 530 -82 123 -81 126 25 84z m318 -135 c281 -141 536 -365 635 -559
22 -43 47 -112 56 -156 10 -43 24 -102 33 -131 16 -52 16 -53 -14 -130 -17
-43 -39 -102 -49 -130 -17 -50 -40 -69 -48 -40 -44 155 -180 452 -289 629
-114 186 -287 401 -409 508 -88 77 -58 80 85 9z m1297 -485 c0 -4 -42 -50 -92
-103 -127 -132 -214 -258 -302 -436 -83 -166 -135 -307 -170 -464 -38 -172
-61 -141 -61 79 l0 135 48 139 c27 77 58 158 69 180 63 125 265 330 427 435
62 40 81 48 81 35z m-1736 -1049 c-3 -8 -38 -21 -77 -30 -148 -33 -205 -49
-306 -86 -179 -67 -173 -46 14 48 104 53 115 56 192 58 56 2 93 8 120 22 39
19 67 14 57 -12z m176 -65 c113 -20 202 -49 198 -66 -3 -15 -75 -48 -238 -106
-76 -27 -102 -31 -250 -38 -186 -9 -261 -23 -514 -100 -234 -70 -246 -68 -140
26 62 54 69 58 123 59 45 2 72 11 141 48 107 57 249 106 410 142 69 15 136 33
149 40 13 7 31 11 40 9 9 -1 45 -8 81 -14z m1630 -20 c180 -51 373 -170 524
-324 112 -114 220 -266 202 -283 -3 -4 -70 57 -148 133 -264 257 -537 408
-826 458 -90 15 -98 18 -87 37 12 19 243 5 335 -21z m-955 -49 c7 -12 2 -13
-165 -50 -223 -48 -431 -121 -684 -240 -59 -28 -113 -51 -118 -51 -19 0 14 30
61 56 26 14 55 38 64 53 13 22 31 32 79 46 35 9 124 41 198 70 150 59 218 79
365 105 112 20 191 25 200 11z m35 -95 c0 -7 -20 -56 -45 -107 -24 -52 -59
-138 -77 -193 -17 -54 -37 -99 -42 -101 -214 -51 -305 -77 -419 -121 -218 -85
-257 -84 -257 7 0 36 -4 51 -16 56 -26 10 -43 -19 -50 -84 -10 -94 -23 -108
-149 -162 -377 -163 -669 -356 -993 -656 -130 -119 -126 -83 10 112 253 359
474 591 768 806 90 67 110 77 146 77 31 0 86 22 235 94 296 143 464 203 714
256 152 33 175 35 175 16z m714 -323 c26 -32 69 -103 97 -158 l51 -100 5 -177
c5 -173 0 -240 -16 -222 -5 5 -14 53 -21 107 -21 176 -86 401 -156 539 -44 88
-25 93 40 11z m-884 -195 c0 -24 -3 -67 -7 -96 -5 -47 -9 -54 -37 -66 -62 -27
-142 -107 -277 -276 -53 -66 -149 -215 -189 -292 -58 -113 -70 -82 -36 98 17
92 29 132 41 139 44 26 66 50 105 117 64 109 106 164 197 259 45 47 85 98 88
111 8 30 37 46 83 47 31 1 32 0 32 -41z m-210 -13 c0 -3 -34 -45 -76 -93 -41
-48 -99 -124 -127 -169 -53 -84 -83 -108 -71 -55 3 15 24 69 45 119 22 51 39
104 39 117 0 13 8 27 18 31 100 43 172 64 172 50z m2512 -638 l63 -53 -4 -100
c-2 -54 -7 -107 -12 -116 -32 -60 -82 36 -124 236 -21 105 -12 109 77 33z
m222 -196 c63 -63 67 -70 56 -91 -7 -14 -10 -45 -7 -79 4 -58 -5 -101 -22
-101 -6 0 -42 32 -82 71 -65 66 -70 74 -60 96 6 13 11 54 11 92 0 105 11 106
104 12z m203 -193 l62 -63 -7 -107 c-5 -78 -12 -112 -23 -123 -15 -15 -22 -10
-88 61 -39 43 -71 83 -71 90 0 7 9 29 21 48 14 24 20 50 19 83 -1 26 -1 54 -1
61 2 25 28 10 88 -50z m217 -218 c56 -58 67 -74 61 -93 -4 -12 -10 -63 -14
-112 -7 -94 -14 -115 -35 -115 -11 0 -131 126 -150 158 -4 7 2 32 14 58 13 25
25 74 28 110 3 40 9 64 17 64 6 0 42 -32 79 -70z m213 -226 c47 -53 67 -83 65
-98 -2 -11 -7 -59 -11 -106 -9 -95 -22 -130 -50 -130 -20 0 -151 151 -151 174
0 8 9 31 21 50 13 23 22 61 26 111 4 51 10 75 19 75 7 0 43 -34 81 -76z m216
-245 c76 -90 77 -90 62 -119 -8 -16 -15 -53 -16 -82 0 -29 -8 -73 -17 -98 -27
-71 -46 -65 -124 39 -38 49 -68 95 -68 104 0 8 7 21 17 28 27 23 43 75 43 142
0 103 6 102 103 -14z m-2853 -19 c52 -4 137 -18 188 -30 82 -20 94 -25 103
-49 17 -44 40 -62 154 -115 541 -256 1068 -716 1360 -1186 61 -98 83 -145 74
-155 -3 -3 -35 8 -71 24 -144 65 -293 98 -488 108 -393 19 -698 -109 -866
-362 -21 -31 -42 -54 -48 -52 -5 2 -23 66 -38 143 -51 256 -139 512 -245 714
-206 389 -468 712 -725 892 -64 45 -75 74 -30 82 40 7 521 -3 632 -14z m-726
-35 c11 -21 58 -64 115 -107 354 -265 707 -797 851 -1280 17 -57 46 -179 65
-272 21 -103 41 -176 51 -187 14 -16 15 -24 6 -44 -6 -14 -17 -25 -23 -25 -6
0 -41 27 -77 59 -151 133 -334 206 -581 232 -82 8 -127 9 -165 1 -28 -6 -76
-11 -106 -11 -71 0 -210 -41 -312 -92 -118 -58 -219 -132 -323 -234 -80 -79
-129 -136 -248 -289 -38 -49 -57 -47 -57 7 0 23 -9 121 -20 217 -22 195 -25
318 -10 495 39 453 182 934 405 1361 36 69 65 134 65 145 0 11 6 22 14 25 21
8 222 32 281 33 48 1 51 -1 69 -34z m-434 -32 c0 -3 -33 -71 -74 -152 -129
-255 -226 -512 -296 -784 -95 -373 -124 -764 -80 -1102 10 -82 16 -153 11
-158 -4 -4 -50 19 -102 53 -102 66 -209 111 -322 137 -106 24 -347 23 -452 -1
-169 -39 -334 -123 -456 -233 -38 -35 -75 -63 -81 -63 -15 0 -5 87 27 245 96
476 359 1018 675 1390 64 75 219 229 336 336 35 31 56 60 66 90 14 42 18 45
103 82 112 48 279 99 470 141 135 30 175 34 175 19z m1712 -23 c123 -24 214
-49 488 -136 563 -180 963 -390 1475 -774 149 -112 271 -228 256 -243 -6 -6
-42 -6 -103 1 -249 29 -475 -75 -625 -289 -30 -44 -58 -79 -62 -79 -18 0 -31
27 -31 65 0 47 -24 96 -124 250 -107 166 -247 334 -412 495 -280 274 -541 461
-876 631 -87 44 -158 84 -158 89 0 15 59 12 172 -10z m2522 -161 c79 -101 79
-101 67 -136 -7 -19 -15 -62 -17 -96 -7 -89 -31 -167 -52 -167 -9 0 -38 31
-64 68 -25 37 -65 93 -87 124 l-41 56 23 29 c34 41 57 106 57 162 0 90 18 84
114 -40z m-5155 -158 c-368 -336 -625 -716 -820 -1211 -83 -209 -135 -404
-183 -682 -8 -46 -23 -48 -62 -7 -120 126 -313 212 -539 239 -155 18 -317 -5
-480 -70 -84 -33 -106 -30 -84 11 6 13 66 89 133 169 500 600 992 1037 1535
1366 249 151 553 294 585 276 5 -3 -33 -44 -85 -91z m5397 -163 c47 -66 87
-125 90 -131 2 -7 -5 -30 -16 -52 -14 -27 -20 -59 -20 -101 0 -65 -14 -118
-38 -146 -8 -10 -19 -15 -24 -12 -15 10 -188 273 -188 287 0 7 6 21 14 32 22
32 56 158 56 207 0 84 10 78 126 -84z m198 -292 c26 -41 56 -96 67 -122 21
-46 21 -49 4 -95 -9 -26 -20 -85 -25 -131 -15 -156 -30 -160 -117 -25 -84 129
-92 150 -70 174 32 37 58 112 64 193 4 54 10 80 18 80 7 0 34 -33 59 -74z
m-2051 -617 c161 -21 343 -86 435 -155 39 -30 40 -43 6 -75 -38 -34 -64 -96
-64 -152 0 -42 -3 -49 -27 -58 -16 -6 -50 -21 -77 -32 l-49 -22 -16 25 c-57
87 -113 121 -212 128 l-67 5 -11 38 c-12 41 -58 85 -97 95 -14 4 -42 4 -64 1
-35 -4 -42 -1 -81 39 -102 104 -222 72 -263 -70 -15 -52 -52 -96 -80 -96 -7 0
-35 -15 -65 -34 -33 -22 -75 -38 -113 -45 -93 -16 -117 -47 -144 -178 -9 -43
-21 -84 -26 -90 -6 -7 -29 -13 -52 -13 -57 -1 -118 -31 -156 -78 -27 -34 -41
-42 -79 -48 -100 -15 -208 -99 -220 -171 l-6 -38 -82 -3 -82 -3 -36 118 c-20
65 -72 230 -116 367 -79 250 -90 300 -66 309 15 6 166 -8 249 -23 143 -26 320
-109 403 -190 60 -58 121 -100 146 -100 23 0 56 44 109 147 47 93 142 202 232
269 172 126 448 174 771 133z m1068 -38 c19 -20 29 -40 29 -59 0 -50 9 -62 45
-62 43 0 84 -16 112 -42 34 -32 14 -48 -61 -48 -64 0 -86 -11 -86 -42 0 -10 1
-18 3 -19 1 0 36 -3 77 -5 70 -4 78 -2 122 25 54 34 76 39 136 27 52 -10 67 1
77 52 14 77 47 81 116 17 26 -25 56 -45 67 -45 28 0 42 -20 42 -59 0 -47 -5
-53 -70 -83 -80 -37 -137 -82 -159 -127 -11 -21 -27 -41 -36 -45 -20 -7 -57
-89 -49 -109 7 -19 27 -28 41 -19 6 4 18 21 27 39 9 17 26 39 38 47 27 19 108
22 108 4 0 -7 -18 -38 -40 -69 -24 -35 -44 -78 -51 -111 -6 -29 -22 -73 -34
-98 -17 -33 -21 -50 -14 -63 16 -29 37 -20 71 31 28 43 108 102 138 102 20 0
9 -37 -27 -90 -20 -30 -44 -75 -54 -100 l-17 -45 -271 -3 -272 -2 -14 35 c-8
19 -15 45 -15 59 0 35 -44 82 -95 102 -39 14 -45 21 -51 53 -10 57 -32 90 -80
124 -41 28 -45 35 -41 62 6 36 -14 98 -40 127 -24 28 -91 58 -129 58 -17 0
-56 -13 -86 -29 -47 -26 -58 -28 -73 -17 -15 11 -17 23 -12 76 6 68 26 105 70
130 24 13 30 12 91 -19 l65 -32 46 26 45 27 35 -31 c36 -31 59 -38 82 -23 20
13 5 110 -19 123 -24 13 -89 3 -147 -22 -36 -16 -50 -17 -77 -9 -55 18 -61 34
-29 81 l27 41 97 -6 97 -7 39 37 c76 71 156 85 206 35z m-1424 -187 c41 -44
58 -55 76 -51 88 20 85 20 111 -6 14 -15 26 -37 26 -51 l0 -26 -74 7 c-66 5
-75 4 -84 -14 -16 -29 -3 -40 63 -48 33 -4 68 -13 79 -21 28 -19 46 -18 72 7
28 26 107 28 158 4 43 -21 88 -82 107 -144 9 -32 22 -50 45 -63 18 -11 47 -42
65 -69 31 -49 33 -50 69 -44 34 6 41 3 69 -27 17 -18 31 -38 31 -44 0 -13 63
-64 80 -64 11 0 22 24 34 73 5 22 1 32 -18 51 -21 19 -24 29 -20 58 5 30 3 37
-14 42 -11 4 -27 18 -36 31 -21 33 -62 33 -106 0 l-34 -25 -38 37 c-44 43 -47
55 -14 76 40 27 73 30 116 13 57 -22 83 -20 144 13 64 34 93 31 137 -10 31
-28 31 -31 24 -94 l-6 -64 48 -25 c66 -33 78 -50 78 -109 0 -45 3 -52 30 -69
17 -10 39 -18 50 -18 36 -1 67 -34 75 -81 5 -24 6 -47 4 -51 -6 -10 -2380 -9
-2414 1 -41 11 -38 52 6 91 50 44 93 60 156 60 53 0 53 0 78 48 30 57 61 73
153 80 80 6 77 1 103 140 21 114 34 133 100 139 43 4 54 2 81 -21 36 -30 64
-33 103 -9 34 20 57 7 62 -35 3 -23 9 -28 50 -36 59 -12 73 -1 83 61 8 53 -3
66 -51 57 -21 -4 -44 2 -73 17 -41 21 -44 21 -78 5 -24 -12 -39 -14 -46 -7
-15 15 8 38 44 46 51 11 95 59 124 135 28 75 43 89 89 90 22 0 41 -13 83 -56z
m2541 18 c20 -15 23 -26 20 -67 l-3 -49 -65 -12 c-36 -7 -88 -21 -117 -32 -92
-35 -101 8 -10 56 26 13 57 38 69 56 24 35 58 66 73 66 6 0 20 -8 33 -18z
m-4184 -54 c2 -7 54 -173 115 -368 136 -438 348 -1129 412 -1349 27 -90 62
-193 79 -229 16 -35 30 -75 30 -88 0 -27 -89 -119 -103 -105 -5 5 -56 163
-113 352 -98 321 -162 531 -269 874 -24 77 -68 226 -99 330 -30 105 -82 271
-116 370 -33 99 -60 187 -60 196 0 20 17 26 78 28 26 1 44 -4 46 -11z m-122
-243 c86 -263 148 -472 148 -497 0 -11 -8 -19 -22 -20 -13 -2 -473 -3 -1023
-3 -811 0 -1019 -3 -1101 -14 -84 -12 -107 -12 -145 -1 -24 7 -79 15 -122 17
-57 3 -80 9 -84 19 -4 10 21 40 72 87 135 124 267 201 426 248 112 32 340 38
470 11 147 -30 285 -101 434 -221 28 -23 59 -41 71 -41 38 0 86 43 173 155
160 205 320 345 495 431 139 68 128 77 208 -171z m4002 89 c26 -10 19 -27 -28
-73 l-44 -43 -85 7 c-126 11 -136 25 -46 70 73 38 163 55 203 39z m-117 -207
c-4 -12 -2 -29 3 -37 7 -12 15 -12 43 -2 18 7 36 12 40 12 16 0 5 -32 -22 -62
-28 -31 -31 -32 -110 -33 -45 0 -81 3 -81 9 0 20 96 135 114 136 14 0 17 -5
13 -23z m-6762 -61 c172 -51 264 -107 394 -239 43 -44 62 -70 58 -81 -6 -14
-51 -16 -409 -16 -572 0 -1018 11 -1018 24 0 6 49 61 109 122 87 89 116 112
144 117 19 3 79 22 133 42 145 54 208 65 364 61 110 -3 152 -9 225 -30z m7115
-126 c0 -5 -11 -26 -25 -46 -25 -36 -37 -73 -50 -146 l-6 -38 -171 0 -170 0 6
30 c7 35 62 120 78 120 6 0 8 -13 4 -34 -11 -59 42 -74 62 -18 7 21 34 40 122
85 109 55 150 68 150 47z m-2610 -506 c0 -8 -29 -70 -64 -138 -55 -106 -76
-135 -148 -207 -95 -96 -167 -187 -327 -412 -62 -86 -144 -197 -183 -245 -80
-99 -106 -150 -115 -222 -5 -48 -11 -55 -88 -128 -95 -90 -151 -130 -185 -134
-39 -5 -35 24 13 83 24 30 75 101 114 159 39 58 87 121 108 140 20 19 46 53
57 75 11 22 37 58 58 80 21 22 167 213 326 425 158 212 316 422 351 468 60 76
83 92 83 56z m161 0 c30 -9 58 -20 63 -24 11 -10 -36 -175 -86 -303 -119 -307
-373 -691 -618 -937 -221 -221 -459 -372 -779 -494 -94 -36 -154 -65 -175 -84
l-31 -30 -140 23 c-77 13 -225 31 -330 40 -104 9 -200 18 -212 21 -27 5 -31
39 -8 71 15 21 21 22 123 16 59 -3 122 -12 140 -19 28 -12 38 -12 60 0 15 7
74 16 132 19 153 7 365 56 463 107 50 25 92 40 115 40 53 0 122 44 235 149 88
81 102 91 136 91 69 0 148 67 294 250 186 232 387 609 387 725 0 38 11 67 54
149 30 55 59 119 66 141 22 71 27 74 111 49z m1459 -25 c0 -11 -87 -152 -194
-312 -106 -161 -223 -342 -260 -404 -36 -61 -91 -143 -121 -182 -58 -76 -85
-121 -85 -145 0 -9 -28 -46 -61 -83 -83 -91 -164 -208 -412 -588 -554 -850
-1184 -1815 -1212 -1852 -20 -28 -45 -30 -45 -3 0 21 36 82 185 310 49 74 239
367 423 650 357 549 703 1069 858 1290 52 74 197 293 321 485 125 193 284 436
354 542 71 105 131 204 135 220 15 64 114 127 114 72z m-1221 -33 c38 -24 -71
-359 -202 -621 -255 -511 -656 -930 -1111 -1161 -61 -31 -125 -70 -142 -86
l-31 -29 -134 31 c-74 17 -138 35 -142 39 -12 12 5 20 153 76 465 176 809 461
1132 940 153 227 267 461 335 688 20 67 40 127 45 133 8 12 73 5 97 -10z m250
-22 l34 -5 -7 -52 c-25 -219 -195 -625 -374 -898 -123 -187 -232 -320 -407
-495 -174 -174 -268 -252 -455 -374 -74 -49 -152 -103 -173 -120 l-37 -32
-107 36 c-98 33 -134 50 -122 59 2 2 54 30 114 62 439 231 798 585 1065 1048
118 207 246 516 276 672 10 50 22 96 27 102 9 12 75 11 166 -3z m775 10 c25
-10 20 -25 -40 -110 -30 -43 -176 -266 -324 -494 -148 -228 -318 -487 -379
-575 -61 -88 -246 -362 -410 -610 -165 -247 -308 -461 -319 -475 l-20 -25 -62
34 c-34 18 -98 48 -143 66 -45 18 -83 40 -85 47 -2 9 47 55 115 110 542 439
909 941 1211 1658 78 184 87 212 102 289 6 30 16 59 23 63 6 4 44 8 82 9 39 0
93 4 120 9 66 10 110 11 129 4z m-425 -23 c29 -19 -3 -126 -114 -381 -168
-386 -365 -721 -592 -1005 -123 -155 -343 -376 -513 -518 -80 -66 -162 -136
-182 -155 -44 -42 -56 -41 -186 19 -62 28 -92 47 -92 58 0 10 27 32 65 55 369
216 777 626 1021 1026 78 129 193 370 243 510 47 133 91 298 91 344 0 18 5 37
12 44 14 14 225 17 247 3z m-1149 -315 c0 -23 -143 -302 -205 -400 -155 -245
-350 -459 -402 -439 -37 14 -4 93 82 198 32 39 119 156 193 260 150 211 192
265 266 343 52 54 66 62 66 38z m1275 -556 c3 -5 13 -144 21 -307 18 -371 63
-850 110 -1161 18 -118 14 -131 -38 -116 -31 9 -33 13 -44 79 -39 233 -114
1029 -114 1210 0 72 -4 98 -20 128 -25 46 -21 64 27 130 35 48 47 55 58 37z
m-131 -226 c3 -9 6 -66 6 -127 0 -139 30 -498 71 -847 17 -146 32 -283 33
-305 1 -38 0 -40 -29 -39 -17 1 -125 27 -240 59 -116 32 -289 79 -385 105
-177 47 -220 63 -220 81 0 25 599 931 679 1027 53 63 74 75 85 46z m-2458
-758 c9 -23 16 -14 -356 -511 -86 -115 -180 -244 -208 -285 -27 -41 -76 -104
-107 -140 -31 -36 -77 -92 -102 -125 -70 -92 -111 -121 -101 -72 4 20 614 849
726 987 24 30 58 79 74 108 30 52 62 69 74 38z m258 -46 c71 -16 191 -50 267
-75 76 -25 143 -45 150 -45 7 0 32 -9 56 -21 42 -20 43 -22 43 -70 0 -29 14
-94 34 -157 49 -152 76 -247 76 -264 0 -9 -28 -29 -64 -47 -65 -32 -80 -49
-70 -76 8 -21 33 -19 72 5 38 24 132 50 177 50 57 0 108 22 155 66 44 41 68
52 83 38 3 -4 1 -16 -5 -28 -18 -34 -359 -560 -373 -574 -10 -11 -31 -5 -116
33 -312 139 -694 280 -1015 376 -179 53 -184 55 -184 71 0 6 74 111 165 232
297 398 354 476 360 496 9 27 34 26 189 -10z m686 -238 l65 -27 1 -50 c1 -28
18 -101 39 -163 20 -62 34 -119 31 -127 -5 -15 -78 -38 -104 -33 -11 2 -24 27
-39 73 -81 263 -102 338 -97 346 8 14 34 9 104 -19z m298 -122 c56 -27 105
-56 108 -64 3 -8 -8 -35 -26 -61 l-31 -46 -48 7 c-30 4 -57 2 -71 -6 -18 -10
-25 -9 -34 2 -19 21 -70 194 -62 213 9 23 36 16 164 -45z m442 10 c11 -6 95
-31 187 -55 92 -25 224 -61 293 -80 69 -20 303 -81 520 -136 217 -55 405 -104
418 -109 16 -7 22 -17 20 -33 -3 -20 -8 -22 -63 -20 -33 1 -112 15 -175 31
-424 110 -1229 324 -1247 332 -27 11 -29 27 -7 58 17 25 27 27 54 12z m-1960
-506 c375 -112 1080 -384 1080 -416 0 -19 -21 -48 -35 -48 -8 0 -43 16 -77 34
-178 98 -739 296 -1095 387 -139 35 -153 44 -123 82 25 32 6 35 250 -39z"/>
<path d="M11484 6405 c-8 -21 25 -153 43 -170 18 -19 27 -19 44 1 10 12 10 22
1 47 -6 18 -14 50 -18 72 -3 22 -11 46 -17 53 -13 17 -46 15 -53 -3z"/>
<path d="M11725 6164 c-16 -8 -38 -14 -50 -13 -39 3 -46 -1 -61 -37 -14 -32
-18 -36 -44 -31 -19 4 -32 1 -41 -9 -20 -24 2 -48 52 -56 24 -4 58 -10 75 -13
26 -6 32 -3 42 19 10 23 17 26 69 27 32 1 69 4 83 8 31 8 40 48 13 58 -10 3
-30 19 -45 35 -30 32 -50 35 -93 12z"/>
<path d="M10182 6048 c-7 -7 -12 -21 -12 -31 0 -17 -5 -18 -51 -12 -40 6 -54
4 -69 -10 -14 -13 -28 -16 -53 -11 -50 9 -66 -13 -39 -56 12 -19 32 -44 46
-57 l24 -23 63 32 c51 25 67 30 85 21 18 -8 28 -6 47 10 14 10 37 19 51 19 48
0 45 61 -3 68 -12 2 -28 17 -36 33 -17 31 -34 36 -53 17z"/>
<path d="M10690 5840 c-8 -5 -27 -11 -42 -15 -33 -6 -38 -39 -9 -55 52 -27
116 3 109 52 -3 25 -32 34 -58 18z"/>
<path d="M10690 2375 c-182 -50 -338 -188 -399 -350 -68 -182 -47 -370 61
-530 109 -165 262 -245 463 -245 228 0 439 105 546 271 58 90 82 181 82 299 0
163 -46 274 -162 391 -119 119 -231 165 -417 174 -89 4 -133 1 -174 -10z m169
-51 c37 -8 40 -27 12 -82 -10 -20 -24 -56 -31 -79 -7 -24 -18 -43 -25 -43 -6
0 -50 20 -98 45 -48 25 -97 45 -108 45 -28 0 -61 19 -54 31 12 18 109 61 169
74 72 16 93 17 135 9z m185 -34 c73 -28 87 -46 50 -61 -16 -6 -61 -27 -100
-45 -81 -38 -84 -39 -84 -20 0 22 59 146 70 146 5 0 34 -9 64 -20z m185 -115
c46 -40 109 -140 131 -212 27 -86 27 -200 0 -286 -25 -82 -45 -101 -61 -61
-85 206 -158 301 -307 402 -34 24 -62 45 -62 47 0 11 97 68 144 85 29 10 66
25 82 34 38 20 38 20 73 -9z m-646 -25 c37 -10 79 -26 93 -35 l24 -16 -113
-112 c-100 -98 -120 -123 -159 -202 -24 -49 -47 -100 -50 -112 -3 -13 -13 -23
-22 -23 -44 0 -48 235 -6 345 23 60 67 132 102 167 14 14 27 18 41 13 12 -4
53 -15 90 -25z m220 -112 c2 -7 -6 -33 -18 -58 -77 -154 -108 -294 -109 -487
-1 -83 -4 -154 -8 -158 -15 -15 -138 57 -195 115 -74 74 -92 105 -75 128 7 9
24 42 38 72 80 176 127 240 247 340 69 58 110 74 120 48z m139 -66 c128 -74
221 -191 290 -364 l41 -102 -52 -47 c-94 -87 -239 -141 -385 -143 l-80 -1 -12
85 c-23 152 11 360 82 510 31 66 48 90 64 90 3 0 26 -13 52 -28z"/>
</g>
</svg>
